<!-- icon666.com - MILLIONS vector ICONS FREE --><svg width='30px' height='30px' viewBox="0 0 24 24" xmlns="http://www.w3.org/2000/svg"><g id="_01" data-name="01"><path fill='#fff' d="m18.84961 1.25h-2.69922c-2.66113 0-3.90039 1.23926-3.90039 3.90039v3.69922c0 2.66113 1.23926 3.90039 3.90039 3.90039h2.69922c2.66113 0 3.90039-1.23926 3.90039-3.90039v-3.69922c0-2.66113-1.23926-3.90039-3.90039-3.90039zm2.40039 7.59961c0 1.83984-.56055 2.40039-2.40039 2.40039h-2.69922c-1.83984 0-2.40039-.56055-2.40039-2.40039v-3.69922c0-1.83984.56055-2.40039 2.40039-2.40039h2.69922c1.83984 0 2.40039.56055 2.40039 2.40039zm-13.40039 2.40039h-2.69922c-2.66113 0-3.90039 1.23926-3.90039 3.90039v3.69922c0 2.66113 1.23926 3.90039 3.90039 3.90039h2.69922c2.66113 0 3.90039-1.23926 3.90039-3.90039v-3.69922c0-2.66113-1.23926-3.90039-3.90039-3.90039zm2.40039 7.59961c0 1.83984-.56055 2.40039-2.40039 2.40039h-2.69922c-1.83984 0-2.40039-.56055-2.40039-2.40039v-3.69922c0-1.83984.56055-2.40039 2.40039-2.40039h2.69922c1.83984 0 2.40039.56055 2.40039 2.40039zm12.5-3.84961a7.75868 7.75868 0 0 1 -7.75 7.75.75074.75074 0 0 1 -.64355-1.13574l1.0498-1.75a.75031.75031 0 0 1 1.28711.77148l-.27051.45117a6.26149 6.26149 0 0 0 4.82715-6.08691.75.75 0 0 1 1.5 0zm-21.5-6a7.75868 7.75868 0 0 1 7.75-7.75.75074.75074 0 0 1 .64355 1.13574l-1.0498 1.75a.75031.75031 0 0 1 -1.28711-.77148l.27051-.45117a6.26149 6.26149 0 0 0 -4.82715 6.08691.75.75 0 0 1 -1.5 0z"></path></g></svg>